<?xml version="1.0" standalone="no"?>
<!DOCTYPE svg PUBLIC "-//W3C//DTD SVG 20010904//EN"
 "http://www.w3.org/TR/2001/REC-SVG-20010904/DTD/svg10.dtd">
<svg version="1.0" xmlns="http://www.w3.org/2000/svg"
 width="512.000000pt" height="512.000000pt" viewBox="0 0 512.000000 512.000000"
 preserveAspectRatio="xMidYMid meet">
<metadata>
Created by potrace 1.14, written by Peter Selinger 2001-2017
</metadata>
<g transform="translate(0.000000,512.000000) scale(0.100000,-0.100000)"
fill="#000000" stroke="none">
<path d="M853 5110 c-207 -41 -384 -226 -419 -437 -9 -52 -9 -4132 0 -4211 7
-65 12 -83 46 -156 21 -47 81 -130 114 -159 12 -10 31 -27 43 -37 13 -11 50
-33 83 -50 125 -63 21 -60 1860 -57 921 1 1686 5 1699 9 148 44 250 116 326
232 37 55 74 148 82 206 8 55 7 4169 -1 4221 -16 108 -73 214 -161 301 -45 45
-59 55 -147 99 -99 50 -44 49 -1823 48 -913 -1 -1679 -5 -1702 -9z m3438 -232
c72 -36 125 -89 158 -158 l26 -55 0 -2105 0 -2105 -27 -55 c-35 -72 -86 -123
-156 -157 l-57 -28 -1640 -2 c-1081 -1 -1659 2 -1695 9 -105 19 -193 92 -235
194 l-25 59 3 2100 2 2100 27 50 c48 91 140 160 233 175 22 3 780 6 1685 5
l1645 0 56 -27z"/>
<path d="M1155 3409 c-44 -7 -84 -49 -86 -89 -6 -151 0 -262 15 -286 23 -33
71 -54 106 -44 71 20 90 52 90 145 l0 65 213 0 214 0 0 -530 c0 -291 -4 -531
-9 -532 -9 -1 -74 -6 -113 -7 -14 -1 -38 -13 -55 -28 -53 -49 -43 -136 20
-168 45 -23 490 -22 530 2 58 34 68 116 21 164 -31 31 -33 31 -123 31 l-58 0
0 534 0 534 213 0 214 0 0 -70 c1 -80 17 -114 65 -135 48 -20 116 6 137 52 18
38 14 269 -4 308 -29 60 -6 58 -708 59 -354 1 -661 -2 -682 -5z"/>
<path d="M3078 3412 c-15 -2 -41 -16 -58 -32 -55 -52 -36 -143 37 -171 14 -5
214 -9 465 -9 487 0 491 0 520 63 28 60 -16 145 -77 148 -60 3 -864 4 -887 1z"/>
<path d="M3077 2769 c-99 -16 -120 -151 -32 -194 28 -13 97 -15 480 -15 399 0
450 2 475 17 58 34 68 116 21 164 -16 16 -35 29 -43 30 -70 4 -874 3 -901 -2z"/>
<path d="M3077 2129 c-99 -16 -120 -151 -32 -194 49 -23 901 -23 949 0 42 20
65 68 55 115 -7 35 -51 79 -79 81 -73 4 -866 3 -893 -2z"/>
<path d="M1155 1489 c-104 -17 -117 -162 -18 -200 15 -5 578 -9 1430 -9 1293
0 1407 1 1433 17 58 34 68 116 21 164 -16 16 -35 29 -43 30 -73 4 -2795 2
-2823 -2z"/>
<path d="M1157 849 c-71 -11 -107 -84 -76 -153 27 -59 -52 -56 1479 -56 1548
0 1450 -4 1482 63 20 43 8 95 -29 124 -15 13 -35 23 -43 24 -75 4 -2786 3
-2813 -2z"/>
</g>
</svg>
